<svg xmlns="http://www.w3.org/2000/svg" width="166.8" height="41.7" viewBox="0 0 166.8 41.7"><defs><style>.cls-1{fill:#fff;}</style></defs><g id="Layer_2" data-name="Layer 2"><g id="Layer_1-2" data-name="Layer 1"><g id="header"><path class="cls-1" d="M161.7,0h-5.3V7.8L148.6,0H73L57.3,15.6V26.1H96.4l-5.2,5.2H10.4V26.1H52.1V0H5.2A5.2,5.2,0,0,0,0,5.2V36.6a5.1,5.1,0,0,0,5.2,5.1h5.2V33.9l7.8,7.8H93.8l15.7-15.6V15.6H70.4l5.2-5.2h80.8v5.2H114.7V41.7h47a5.1,5.1,0,0,0,5.1-5.1V5.2A5.1,5.1,0,0,0,161.7,0ZM10.4,10.4H41.7v5.2H10.4Zm146,20.9H125.1V26.1h31.3Z"/></g></g></g></svg>