<svg xmlns="http://www.w3.org/2000/svg" viewBox="0 0 157.1 158.5"><defs><style>.cls-1{fill:#1e6fd1;}.cls-2{fill:none;}</style></defs><g id="Layer_2" data-name="Layer 2"><g id="Layer_1-2" data-name="Layer 1"><path class="cls-1" d="M7.9,111A8.7,8.7,0,0,0,0,102.3v4.8A4.1,4.1,0,0,1,3.2,111,4.1,4.1,0,0,1,0,114.9v4.8A8.8,8.8,0,0,0,7.9,111Z"/><polygon class="cls-1" points="86.5 73.3 83.1 69.9 77.8 75.2 72.5 69.9 69.1 73.3 74.5 78.6 69.1 83.9 72.5 87.3 77.8 82 83.1 87.3 86.5 83.9 81.2 78.6 86.5 73.3"/><polygon class="cls-1" points="5.5 22.4 0.1 27.7 0 27.6 0 27.8 0 34.3 0 34.5 0.1 34.4 5.5 39.7 8.8 36.4 3.5 31 8.8 25.7 5.5 22.4"/><path class="cls-1" d="M78.5,4a4,4,0,0,1-4-4H69.8a8.7,8.7,0,0,0,8.7,8.7A8.7,8.7,0,0,0,87.2,0H82.4A3.9,3.9,0,0,1,78.5,4Z"/><path class="cls-2" d="M78.5,154.6a3.9,3.9,0,0,0-4,3.9h7.9A3.8,3.8,0,0,0,78.5,154.6Z"/><path class="cls-1" d="M78.5,154.6a3.8,3.8,0,0,1,3.9,3.9h4.8a8.7,8.7,0,0,0-17.4,0h4.7A3.9,3.9,0,0,1,78.5,154.6Z"/><path class="cls-2" d="M153.8,111a4,4,0,0,0,3.3,3.9v-7.8A3.9,3.9,0,0,0,153.8,111Z"/><path class="cls-1" d="M153.8,111a3.9,3.9,0,0,1,3.3-3.9v-4.8a8.7,8.7,0,0,0,0,17.4v-4.8A4,4,0,0,1,153.8,111Z"/><polygon class="cls-1" points="151.8 22.4 148.4 25.7 153.7 31 148.4 36.4 151.8 39.7 157.1 34.4 157.1 27.7 151.8 22.4"/></g></g></svg>