<svg xmlns="http://www.w3.org/2000/svg" width="58.7" height="46.1" viewBox="0 0 58.7 46.1"><defs><style>.cls-1{fill:#070707;}.cls-2{fill:#f3c300;}.cls-3{fill:#00ac9f;}.cls-4{fill:#2e6db4;}.cls-5{fill:#df0024;}</style></defs><g id="Layer_2" data-name="Layer 2"><g id="Layer_1-2" data-name="Layer 1"><g id="header"><path class="cls-1" d="M58.2,31.2a5.3,5.3,0,0,0-1-1.2,9.1,9.1,0,0,0-2.4-1.6,21.2,21.2,0,0,0-5.7-1.9,33.4,33.4,0,0,0-4.3-.5A8.3,8.3,0,0,0,46,23.5a14,14,0,0,0,.8-4.5,15.5,15.5,0,0,0-.4-5A11.9,11.9,0,0,0,44,8.8a12.3,12.3,0,0,0-4.3-3.3,39.4,39.4,0,0,0-4.8-1.8l-.6-.2C30.9,2.3,23.5.3,23.2.2H22.1a1.8,1.8,0,0,0-1.7,1.7v22h-.2l-2.1.7L6.4,28.6l-.7.2a13.5,13.5,0,0,0-3.2,1.7A5.6,5.6,0,0,0,.9,31.9,4.3,4.3,0,0,0,0,34.5a4.7,4.7,0,0,0,1,2.7,7.2,7.2,0,0,0,1.9,1.4,22.8,22.8,0,0,0,3.5,1.5,27.9,27.9,0,0,0,8.8,1.3h1.1l4.1-.3h0a2,2,0,0,0,.4,1.3,1.8,1.8,0,0,0,1,.7h.1l8.2,2.6,1.4.2a4,4,0,0,0,1.5-.3l.8-.3,5.8-2L52.2,39l.9-.3a16.3,16.3,0,0,0,3.3-1.8,10.6,10.6,0,0,0,1.5-1.5,4.6,4.6,0,0,0,.8-2.4A4.1,4.1,0,0,0,58.2,31.2Z"/><path class="cls-2" d="M33.1,43.5l5.8-2.1-5.8-1.9Z"/><path class="cls-2" d="M18.8,34.8l-.4.2c-3.2,1.1-3.8,1.2-5.4,1.2s-4-.9-1.8-1.7l3-1.1L6.5,30.9c-1.6.6-4.3,1.9-4.3,3.6S5.3,37.4,7.1,38a27.5,27.5,0,0,0,9.1,1.2l4.7-.4V35.5Z"/><path class="cls-2" d="M22.6,38.5l2.3-.6,1.7-.5-4-1.3Z"/><path class="cls-3" d="M20.9,31.1V27.2l-2.1-.6-11.7,4-.6.3,7.7,2.5Z"/><path class="cls-3" d="M22.6,30.5l1.5-.5-.6-2-.9-.3Z"/><path class="cls-3" d="M39.3,32.9h.3l-6.5-1.9v4.3Z"/><path class="cls-3" d="M31.3,30.5l-8.7,3v2.6l4,1.3,4.8-1.6V30.4Z"/><path class="cls-3" d="M18.8,34.8l2.1.7V34.1Z"/><path class="cls-3" d="M33.1,38.2v1.3l5.8,1.9L51.4,37l.9-.4-7.8-2.3Z"/><path class="cls-4" d="M48.7,28.7a30.5,30.5,0,0,0-10.5-.2,20.2,20.2,0,0,0-5.1,1.3v1.1l6.5,1.9c1.7-.6,3.6-1.6,5.8-1.5s3.2.5,3.1,1.1-.7.7-2.7,1.4l-1.3.5,7.8,2.3c1.9-.7,4.2-2,4.2-3.6S52,29.3,48.7,28.7Z"/><path class="cls-4" d="M20.9,25.9l-2.1.7,2.1.6Z"/><path class="cls-4" d="M23.5,28l-.8-2.8h-.1v2.4Z"/><path class="cls-5" d="M31.4,44.1l-8.8-2.9V2.3s7.6,2.1,11,3.3,6.7,2.1,8.7,4.6a12.8,12.8,0,0,1,2.3,8.6c-.1,2.6-.7,5.7-2.8,7.2s-4.9.8-7.1-.2V11.7a1.9,1.9,0,0,0-1.4-2.1,1.4,1.4,0,0,0-1.9,1.3Z"/></g></g></g></svg>